<svg xmlns="http://www.w3.org/2000/svg" xmlns:xlink="http://www.w3.org/1999/xlink"><symbol id="icon-odnoklassniki" viewBox="0 0 25 25"><g fill="currentColor">
<path fill-rule="evenodd" d="M0 12.5C0 5.597 5.597 0 12.5 0S25 5.597 25 12.5 19.403 25 12.5 25 0 19.403 0 12.5Zm14.31-3.93c0-.927-.731-1.681-1.63-1.681-.898 0-1.629.754-1.629 1.682 0 .924.73 1.679 1.63 1.679.898 0 1.629-.755 1.629-1.68Zm2.305 0c0 2.238-1.764 4.06-3.935 4.06-2.17 0-3.932-1.822-3.932-4.06 0-2.24 1.762-4.061 3.932-4.061s3.935 1.821 3.935 4.062Zm-.06 6.395a7.29 7.29 0 0 1-2.283.978l2.2 2.269c.45.463.45 1.218 0 1.682a1.123 1.123 0 0 1-1.63 0l-2.162-2.23-2.16 2.23c-.227.231-.522.349-.817.349-.295 0-.587-.118-.814-.35a1.218 1.218 0 0 1 0-1.681l2.2-2.269a7.29 7.29 0 0 1-2.284-.978 1.213 1.213 0 0 1-.363-1.64 1.127 1.127 0 0 1 1.589-.374 4.866 4.866 0 0 0 5.296 0 1.13 1.13 0 0 1 1.591.374c.339.557.176 1.291-.362 1.64Z" clip-rule="evenodd"/>
</g></symbol><symbol id="icon-reddit" viewBox="0 0 25 25"><g fill="currentColor">
<path fill-rule="evenodd" d="M0 12.5C0 5.597 5.597 0 12.5 0S25 5.597 25 12.5 19.403 25 12.5 25 0 19.403 0 12.5Zm12.72-6.393a1.495 1.495 0 0 1 1.13-.551c.72 0 1.204.492 1.453.818l.106.14c.07.093.122.165.164.202.061.055.078.057.17.057v1.218c-.326 0-.626-.15-.828-.323-.18-.154-.3-.312-.401-.445a10.737 10.737 0 0 0-.038-.05l-.062-.082c-.168-.224-.24-.318-.563-.318-.167 0-.239.05-.338.172-.099.12-.192.342-.27.646-.125.486-.169 1.13-.186 1.75a7.313 7.313 0 0 1 3.31 1.028c.382-.32.842-.5 1.283-.494.503.004.98.22 1.334.665.678.85.6 2.238-.185 3.064.048.254.084.516.084.78 0 2.794-2.858 5.06-6.383 5.06s-6.383-2.264-6.383-5.06c0-.264.036-.526.084-.78-.785-.826-.863-2.214-.185-3.064a1.697 1.697 0 0 1 1.334-.665c.44-.005.901.173 1.283.494a7.317 7.317 0 0 1 3.327-1.027c.012-.673.065-1.42.236-2.093.108-.419.255-.816.524-1.142Zm3.123 1.275c0-.946.68-1.712 1.52-1.712s1.52.766 1.52 1.712c0 .947-.68 1.712-1.52 1.712s-1.52-.765-1.52-1.712Zm2.5 0c0-.609-.44-1.103-.98-1.103s-.98.494-.98 1.103.44 1.104.98 1.104.98-.495.98-1.104Zm-.321 7.002c0-2.215-2.531-4.09-5.522-4.09s-5.522 1.875-5.522 4.09c0 2.216 2.531 4.09 5.522 4.09s5.522-1.874 5.522-4.09Zm-10.2-3.425a1.075 1.075 0 0 0-.455-.114.877.877 0 0 0-.71.342c-.249.312-.304.9-.101 1.37a4.987 4.987 0 0 1 1.266-1.598Zm10.52.228a.877.877 0 0 0-.709-.342c-.15.002-.306.04-.456.114.543.464.974.997 1.267 1.598.203-.47.148-1.058-.101-1.37ZM9.36 13.47c0-.608.44-1.103.98-1.103s.979.495.979 1.103c0 .61-.44 1.104-.98 1.104s-.979-.495-.979-1.104Zm4.323 0c0-.608.44-1.103.98-1.103s.979.495.979 1.103c0 .61-.44 1.104-.98 1.104s-.979-.495-.979-1.104ZM12.5 17.694c-1.277 0-2.34-.777-2.685-1.579.625.454 1.594.761 2.685.761s2.077-.307 2.702-.761c-.344.802-1.425 1.58-2.702 1.58Z" clip-rule="evenodd"/>
</g></symbol><symbol id="icon-vk" viewBox="0 0 25 25"><g fill="currentColor">
<path fill-rule="evenodd" d="M0 12.5C0 5.597 5.597 0 12.5 0S25 5.597 25 12.5 19.403 25 12.5 25 0 19.403 0 12.5Zm14.64 3.22c-.338-.393-.65-.755-.917-.668-.448.143-.433 1.12-.433 1.12s.004.209-.1.32c-.11.12-.328.144-.328.144h-.72s-1.589.098-2.987-1.375c-1.526-1.605-2.873-4.792-2.873-4.792s-.077-.208.007-.309c.095-.114.354-.121.354-.121l1.72-.011s.162.027.277.113c.098.072.151.204.151.204s.278.71.645 1.353c.719 1.257 1.053 1.53 1.298 1.396.356-.195.25-1.775.25-1.775s.005-.573-.18-.828c-.145-.198-.415-.255-.535-.272-.096-.013.062-.239.268-.342.31-.153.857-.162 1.502-.153.504.005.649.036.847.085.456.111.441.469.41 1.24-.008.23-.019.497-.019.805 0 .07-.002.145-.004.221-.01.394-.023.845.233 1.013.133.086.455.013 1.261-1.372a10.7 10.7 0 0 0 .67-1.425c.068-.184.217-.238.394-.239l1.811-.012s.544-.065.633.185c.092.259-.204.868-.943 1.865-.703.946-1.044 1.294-1.012 1.602.023.224.245.427.67.826.894.839 1.13 1.278 1.187 1.381a.648.648 0 0 0 .01.018c.397.668-.444.72-.444.72l-1.608.023s-.347.068-.8-.247c-.239-.165-.472-.436-.694-.693Z" clip-rule="evenodd"/>
</g></symbol></svg>