<svg viewBox="0 0 25 25" fill="currentColor" xmlns="http://www.w3.org/2000/svg">
<path fill-rule="evenodd" d="M0 12.5C0 5.597 5.597 0 12.5 0S25 5.597 25 12.5 19.403 25 12.5 25 0 19.403 0 12.5Zm14.64 3.22c-.338-.393-.65-.755-.917-.668-.448.143-.433 1.12-.433 1.12s.004.209-.1.32c-.11.12-.328.144-.328.144h-.72s-1.589.098-2.987-1.375c-1.526-1.605-2.873-4.792-2.873-4.792s-.077-.208.007-.309c.095-.114.354-.121.354-.121l1.72-.011s.162.027.277.113c.098.072.151.204.151.204s.278.71.645 1.353c.719 1.257 1.053 1.53 1.298 1.396.356-.195.25-1.775.25-1.775s.005-.573-.18-.828c-.145-.198-.415-.255-.535-.272-.096-.013.062-.239.268-.342.31-.153.857-.162 1.502-.153.504.005.649.036.847.085.456.111.441.469.41 1.24-.008.23-.019.497-.019.805 0 .07-.002.145-.004.221-.01.394-.023.845.233 1.013.133.086.455.013 1.261-1.372a10.7 10.7 0 0 0 .67-1.425c.068-.184.217-.238.394-.239l1.811-.012s.544-.065.633.185c.092.259-.204.868-.943 1.865-.703.946-1.044 1.294-1.012 1.602.023.224.245.427.67.826.894.839 1.13 1.278 1.187 1.381a.648.648 0 0 0 .01.018c.397.668-.444.72-.444.72l-1.608.023s-.347.068-.8-.247c-.239-.165-.472-.436-.694-.693Z" clip-rule="evenodd"/>
</svg>
