<svg viewBox="0 0 25 25" xmlns="http://www.w3.org/2000/svg" fill="currentColor">
<path fill-rule="evenodd" d="M0 12.5C0 5.597 5.597 0 12.5 0S25 5.597 25 12.5 19.403 25 12.5 25 0 19.403 0 12.5Zm14.31-3.93c0-.927-.731-1.681-1.63-1.681-.898 0-1.629.754-1.629 1.682 0 .924.73 1.679 1.63 1.679.898 0 1.629-.755 1.629-1.68Zm2.305 0c0 2.238-1.764 4.06-3.935 4.06-2.17 0-3.932-1.822-3.932-4.06 0-2.24 1.762-4.061 3.932-4.061s3.935 1.821 3.935 4.062Zm-.06 6.395a7.29 7.29 0 0 1-2.283.978l2.2 2.269c.45.463.45 1.218 0 1.682a1.123 1.123 0 0 1-1.63 0l-2.162-2.23-2.16 2.23c-.227.231-.522.349-.817.349-.295 0-.587-.118-.814-.35a1.218 1.218 0 0 1 0-1.681l2.2-2.269a7.29 7.29 0 0 1-2.284-.978 1.213 1.213 0 0 1-.363-1.64 1.127 1.127 0 0 1 1.589-.374 4.866 4.866 0 0 0 5.296 0 1.13 1.13 0 0 1 1.591.374c.339.557.176 1.291-.362 1.64Z" clip-rule="evenodd"/>
</svg>
