<svg viewBox="0 0 25 25" fill="currentColor" xmlns="http://www.w3.org/2000/svg"><path fill-rule="evenodd" d="M0 12.5C0 5.597 5.597 0 12.5 0S25 5.597 25 12.5 19.403 25 12.5 25 0 19.403 0 12.5Zm12.72-6.393a1.495 1.495 0 0 1 1.13-.551c.72 0 1.204.492 1.453.818l.106.14c.07.093.122.165.164.202.061.055.078.057.17.057v1.218c-.326 0-.626-.15-.828-.323-.18-.154-.3-.312-.401-.445a10.737 10.737 0 0 0-.038-.05l-.062-.082c-.168-.224-.24-.318-.563-.318-.167 0-.239.05-.338.172-.099.12-.192.342-.27.646-.125.486-.169 1.13-.186 1.75a7.313 7.313 0 0 1 3.31 1.028c.382-.32.842-.5 1.283-.494.503.004.98.22 1.334.665.678.85.6 2.238-.185 3.064.048.254.084.516.084.78 0 2.794-2.858 5.06-6.383 5.06s-6.383-2.264-6.383-5.06c0-.264.036-.526.084-.78-.785-.826-.863-2.214-.185-3.064a1.697 1.697 0 0 1 1.334-.665c.44-.005.901.173 1.283.494a7.317 7.317 0 0 1 3.327-1.027c.012-.673.065-1.42.236-2.093.108-.419.255-.816.524-1.142Zm3.123 1.275c0-.946.68-1.712 1.52-1.712s1.52.766 1.52 1.712c0 .947-.68 1.712-1.52 1.712s-1.52-.765-1.52-1.712Zm2.5 0c0-.609-.44-1.103-.98-1.103s-.98.494-.98 1.103.44 1.104.98 1.104.98-.495.98-1.104Zm-.321 7.002c0-2.215-2.531-4.09-5.522-4.09s-5.522 1.875-5.522 4.09c0 2.216 2.531 4.09 5.522 4.09s5.522-1.874 5.522-4.09Zm-10.2-3.425a1.075 1.075 0 0 0-.455-.114.877.877 0 0 0-.71.342c-.249.312-.304.9-.101 1.37a4.987 4.987 0 0 1 1.266-1.598Zm10.52.228a.877.877 0 0 0-.709-.342c-.15.002-.306.04-.456.114.543.464.974.997 1.267 1.598.203-.47.148-1.058-.101-1.37ZM9.36 13.47c0-.608.44-1.103.98-1.103s.979.495.979 1.103c0 .61-.44 1.104-.98 1.104s-.979-.495-.979-1.104Zm4.323 0c0-.608.44-1.103.98-1.103s.979.495.979 1.103c0 .61-.44 1.104-.98 1.104s-.979-.495-.979-1.104ZM12.5 17.694c-1.277 0-2.34-.777-2.685-1.579.625.454 1.594.761 2.685.761s2.077-.307 2.702-.761c-.344.802-1.425 1.58-2.702 1.58Z" clip-rule="evenodd"/></svg>